<svg width="24" height="24" viewBox="0 0 24 24" fill="none" xmlns="http://www.w3.org/2000/svg">
<path d="M5 9.92285C5 14.7747 9.24448 18.7869 11.1232 20.3252C11.3921 20.5454 11.5281 20.6568 11.7287 20.7132C11.8849 20.7572 12.1148 20.7572 12.271 20.7132C12.472 20.6567 12.6071 20.5463 12.877 20.3254C14.7557 18.7871 18.9999 14.7751 18.9999 9.9233C18.9999 8.08718 18.2625 6.32605 16.9497 5.02772C15.637 3.72939 13.8566 3 12.0001 3C10.1436 3 8.36301 3.7295 7.05025 5.02783C5.7375 6.32616 5 8.08674 5 9.92285Z" stroke="#FF3C3C" stroke-width="2" stroke-linecap="round" stroke-linejoin="round"/>
<path d="M10 9C10 10.1046 10.8954 11 12 11C13.1046 11 14 10.1046 14 9C14 7.89543 13.1046 7 12 7C10.8954 7 10 7.89543 10 9Z" stroke="#FF3C3C" stroke-width="2" stroke-linecap="round" stroke-linejoin="round"/>
<path d="M19.0003 10.5C19.0003 15.0597 14.7034 18.9264 12.5563 20.5832C12.2249 20.839 11.7693 20.8488 11.4316 20.6014C9.18819 18.9579 5.00025 15.0988 5 10.5C4.9997 5 9.00021 3 12.0002 3C15.0002 3 19.0003 5 19.0003 10.5Z" fill="#FFEBEB" stroke="#FF2525" stroke-width="2"/>
<circle cx="12" cy="10" r="3" stroke="#FF2525" stroke-width="2"/>
</svg>
